<?xml version="1.0" encoding="utf-8"?>
<!-- Svg Vector Icons : http://www.sfont.cn -->
<!DOCTYPE svg PUBLIC "-//W3C//DTD SVG 1.1//EN" "http://www.w3.org/Graphics/SVG/1.1/DTD/svg11.dtd">
<svg version="1.1" xmlns="http://www.w3.org/2000/svg" xmlns:xlink="http://www.w3.org/1999/xlink" x="0px" y="0px" viewBox="0 0 1000 1000" enable-background="new 0 0 1000 1000" xml:space="preserve">
<metadata> Svg Vector Icons : http://www.sfont.cn </metadata>
<g><path d="M500,10C229.4,10,10,229.4,10,500c0,270.6,219.4,490,490,490s490-219.4,490-490C990,229.4,770.6,10,500,10z M500,941C256.4,941,59,743.6,59,500C59,256.4,256.4,59,500,59s441,197.4,441,441C941,743.6,743.6,941,500,941z" fill="#ffffff"/><path d="M500,206c162.4,0,294,131.6,294,294c0,162.4-131.6,294-294,294S206,662.4,206,500C206,337.6,337.6,206,500,206z" fill="#ffffff"/></g>
</svg>