<?xml version="1.0" encoding="utf-8"?>
<!-- Svg Vector Icons : http://www.sfont.cn -->
<!DOCTYPE svg PUBLIC "-//W3C//DTD SVG 1.1//EN" "http://www.w3.org/Graphics/SVG/1.1/DTD/svg11.dtd">
<svg version="1.1" xmlns="http://www.w3.org/2000/svg" xmlns:xlink="http://www.w3.org/1999/xlink" x="0px" y="0px" viewBox="0 0 1000 1000" enable-background="new 0 0 1000 1000" xml:space="preserve">
<metadata> Svg Vector Icons : http://www.sfont.cn </metadata>
<g><g transform="translate(0.000000,512.000000) scale(0.100000,-0.100000)"><path d="M3766.6,4219.9l-1383.9-798.2V1813.9V206.1l321.6-183.8l319.7-183.8l3.8-447.9c3.8-388.6,1.9-444.1-23-413.4c-13.4,21.1-126.3,212.5-250.7,426.8l-223.9,390.5H2153h-379l-172.3-300.5c-95.7-166.5-179.9-315.8-185.7-333c-7.7-21.1,101.4-229.7,315.8-597.2l327.3-566.6l95.7-465.1l95.7-465.1l553.2-555.1l555.1-555.1v-369.4V-4780h162.7h162.7v444.1v446L3112-3315.7l-570.4,574.2l-82.3,411.5c-45.9,225.8-97.6,442.1-116.8,478.5c-17.2,36.4-153.1,275.6-300.5,532.1l-269.9,465.1l95.7,162.7l95.7,160.8h187.6h189.5l503.4-874.7l505.3-874.7L3355-50.4l3.8,2228l162.7,91.9l162.7,91.9l157-91.9l158.9-93.8l5.7-1353.2l3.8-1353.2h162.7h162.7v1843.2v1841.3l162.7,91.9l162.7,93.8l162.7-91.9l162.7-91.9V1312.5V-530.8h162.7h162.7l3.8,1353.2l5.7,1353.2l160.8,91.9l158.9,91.9l160.8-90l160.8-91.9V824.4V-530.8h162.7h162.7V491.3v1022.1l155,91.9c86.1,49.8,166.5,90,178,90c11.5,0,91.9-40.2,179.9-90l158.9-91.9l-1.9-1841.3l-1.9-1839.4l-335-891.9l-333-893.9v-413.5V-4780h162.7h162.7v382.8v382.8l335,893.9l335,891.9V-1193v1035.5L7608.1,32l325.4,187.6l-3.8,1600.2l-5.7,1602.1l-1385.8,798.2C5776.3,4660.2,5152.4,5020,5150.5,5020C5150.5,5020,4526.5,4660.2,3766.6,4219.9z M6402.2,3925.2l1205.8-694.8V1819.7V409L7476,330.5c-74.6-42.1-147.4-82.3-162.7-88c-26.8-11.5-30.6,65.1-30.6,723.5v733.1l-323.5,187.6c-178,101.5-329.2,185.7-338.8,185.7c-7.7,0-80.4-38.3-162.7-86.1c-82.3-47.9-153.1-86.1-158.9-86.1c-5.7,0-13.4,105.3-15.3,233.5l-5.8,233.5l-306.3,178c-168.4,97.6-315.8,176.1-329.2,178c-13.4,0-90-38.3-170.3-86.1c-78.5-47.9-147.4-86.1-153.1-86.1c-3.8,0-9.6,178-11.5,396.2l-5.7,398.1L4982,3528.9l-319.6,185.7l-321.6-185.7l-321.6-185.7l-9.6-396.2l-9.6-396.2l-151.2,86.1c-82.3,47.8-158.9,86.1-172.3,86.1c-11.5-1.9-158.9-82.3-327.3-179.9l-306.3-179.9l-9.6-1073.8l-9.6-1073.8l-157,91.9l-158.9,90v1418.3v1420.2l1211.6,700.6c708.2,409.6,1223.1,696.7,1244.1,692.9C5181.1,4625.7,5740,4308,6402.2,3925.2z" fill="#ffffff"/><path d="M2556.9,4273.5c-436.4-252.7-800.1-465.1-809.7-474.7c-7.7-7.7-21-838.4-26.8-1847.1L1707,120h176.1h174.2v1747.5v1745.6l650.8,373.2l650.8,373.2v187.6c0,101.5-1.9,185.7-3.8,185.7C3351.2,4732.9,2993.3,4526.2,2556.9,4273.5z" fill="#ffffff"/><path d="M6957.3,4543.4v-185.7l646.9-373.2l645-373.2l5.7-1791.6l3.8-1791.6l-325.4-189.5l-325.4-187.6v-187.6V-726l63.2,36.4c32.5,21,252.7,147.4,488.1,281.4l424.9,246.9v1975.3v1977.2l-396.2,229.7c-220.1,126.3-585.7,336.9-813.5,468.9L6957.3,4731V4543.4z" fill="#ffffff"/></g></g>
</svg>