<?xml version="1.0" encoding="utf-8"?>
<!-- Svg Vector Icons : http://www.sfont.cn -->
<!DOCTYPE svg PUBLIC "-//W3C//DTD SVG 1.1//EN" "http://www.w3.org/Graphics/SVG/1.1/DTD/svg11.dtd">
<svg version="1.1" xmlns="http://www.w3.org/2000/svg" xmlns:xlink="http://www.w3.org/1999/xlink" x="0px" y="0px" viewBox="0 0 1000 1000" enable-background="new 0 0 1000 1000" xml:space="preserve">
<metadata> Svg Vector Icons : http://www.sfont.cn </metadata>
<g><g transform="translate(0.000000,512.000000) scale(0.100000,-0.100000)"><path d="M4762.7,4811.4c-149.3-153.1-202.9-220.1-197.2-245c5.7-19.1,17.2-116.7,23-218.2l13.4-183.8l-120.6-13.4c-635.5-70.8-1374.3-367.5-1906.4-769.5l-156.9-118.7l-145.5,170.3l-143.6,170.4h-283.3c-195.2,0-290.9-7.7-306.3-23c-15.3-15.3-23-111-23-306.3v-283.3l170.4-143.6l170.3-145.5l-128.2-172.3c-260.3-344.5-490-803.9-622.1-1248c-68.9-225.9-145.5-601-145.5-708.2v-55.5l-185.7,11.5c-103.4,7.7-202.9,19.1-222,24.9c-24.9,5.7-91.9-47.9-245-197.2C193.8,244.4,100,137.2,100,120c0-44,413.4-447.9,446-434.5c15.3,5.7,112.9,15.3,218.2,23l191.4,13.4l13.4-111c72.7-652.7,365.6-1382,769.5-1916l118.7-157l-170.3-145.5l-170.4-143.6v-283.3c0-195.2,7.7-290.9,23-306.3c15.3-15.3,111-23,306.3-23h283.3l143.6,170.4l145.5,170.3l160.8-122.5c526.4-396.2,1286.3-702.5,1906.4-767.5l116.8-11.5l-13.4-183.8c-5.7-101.4-17.2-199.1-23-218.2c-5.7-24.9,47.9-91.9,197.2-245c112.9-114.8,220.1-208.6,237.3-208.6s124.4,93.8,237.4,208.6c149.3,153.1,202.9,220.1,197.1,245c-5.7,19.1-17.2,116.8-23,218.2l-13.4,183.8l120.6,13.4c635.5,70.8,1374.3,367.5,1906.4,769.4l157,118.7l145.5-170.3l143.6-170.4h283.3c195.2,0,290.9,7.7,306.3,23c15.3,15.3,23,111,23,306.3v283.3l-170.4,143.6l-170.3,145.5l122.5,160.8c396.2,526.4,702.5,1286.2,767.5,1904.5l11.5,114.8l78.5-1.9c44,0,143.6-7.7,222-15.3l143.6-15.3l206.7,202.9C9808.1-2.5,9900,102.8,9900,120s-93.8,124.4-208.6,237.3c-153.1,149.3-220.1,202.9-245,197.2c-19.1-5.7-116.8-17.2-218.2-23l-183.8-13.4L9031,638.7c-70.8,639.3-367.5,1372.4-769.4,1906.4l-118.7,156.9l170.3,145.5l170.4,143.6v283.3c0,195.2-7.7,290.9-23,306.3c-15.3,15.3-111,23-306.3,23h-283.3l-143.6-170.4l-145.5-170.3l-157,118.7c-534,402-1286.3,706.3-1910.2,771.4l-116.8,11.5l13.4,183.8c5.7,101.5,17.2,199.1,23,218.2c5.7,24.9-47.9,91.9-197.1,245C5124.4,4926.2,5017.2,5020,5000,5020S4875.6,4926.2,4762.7,4811.4z M4741.6,2690.6c49.8-547.4,72.7-880.5,61.3-888.1c-9.6-7.7-59.3-19.1-109.1-24.9c-189.5-24.9-476.6-145.5-658.4-273.7c-76.6-55.5-97.6-63.2-116.8-40.2c-13.4,13.4-271.8,321.6-574.2,683.3L2795,2807.3l45.9,34.5c149.3,118.7,495.7,333,666.1,413.4c201,95.7,459.4,185.7,687.1,243.1c132.1,34.4,447.9,84.2,459.4,72.7C4657.4,3569.1,4697.6,3171,4741.6,2690.6z M5794.3,3498.3c269.9-63.2,463.2-132.1,710.1-248.8c181.8-88,505.3-289,654.6-407.7l45.9-34.5L6655.7,2147c-302.4-361.8-560.8-669.9-574.2-683.3c-19.1-23-40.2-15.3-116.7,40.2c-181.8,128.2-468.9,248.8-658.4,273.7c-49.8,5.7-99.5,17.2-109.1,24.9c-11.5,7.7,13.4,350.3,63.2,892c45.9,484.3,82.3,880.5,84.2,882.4C5348.4,3586.4,5645,3534.7,5794.3,3498.3z M3015.1,1741.2c365.6-302.4,664.2-555.1,664.2-560.8c0-3.8-30.6-49.8-67-99.5c-126.3-176.1-225.9-432.6-285.2-731.2l-9.6-49.8l-886.2,82.3c-488.1,44-886.2,80.4-888.1,82.3c0,0,5.7,53.6,13.4,120.6c55.5,424.9,239.3,947.5,455.5,1305.4c137.8,225.9,292.9,430.7,315.8,417.3C2339.5,2300.1,2647.6,2045.5,3015.1,1741.2z M7786.9,2192.9c289-390.5,478.5-800.1,591.5-1278.6c36.4-149.3,86.1-446,78.5-449.8c-1.9-1.9-400-38.3-888.1-82.3l-886.2-82.3l-9.6,49.8c-59.3,300.5-158.9,555.1-287.1,733.1c-57.4,78.5-65.1,99.5-42.1,120.6c47.9,47.9,1326.4,1115.9,1337.9,1115.9C7687.4,2321.2,7735.2,2263.8,7786.9,2192.9z M5432.6,1331.6c382.8-143.6,641.2-405.8,782.9-794.3c68.9-187.6,86.1-482.3,40.2-689.1C6123.6-741.3,5601-1162.4,5000-1162.4c-710.1,0-1282.4,572.3-1282.4,1282.4c0,566.6,367.5,1062.3,909.2,1230.7c157,49.8,162.7,49.8,411.5,44C5250.7,1389,5294.8,1383.3,5432.6,1331.6z M3325.2-103.9c63.2-313.9,143.6-520.6,279.5-719.7c65.1-93.8,74.6-118.7,51.7-137.8c-13.4-13.4-321.6-271.8-683.3-574.2L2312.7-2085l-34.5,45.9c-19.1,24.9-95.7,134-170.3,243.1c-275.6,405.8-467,903.4-539.8,1397.3c-15.3,95.7-24.9,174.2-24.9,176.1c1.9,0,394.3,38.3,872.8,84.2c478.5,44,876.6,82.3,884.3,84.2C3308-54.2,3319.5-75.2,3325.2-103.9z M7564.8-138.4c426.8-36.4,802-72.7,834.5-76.6l59.3-9.6l-15.3-120.6c-44-329.2-166.5-731.2-323.5-1058.5c-80.4-166.5-283.3-491.9-398.1-635.5l-34.4-45.9L7027-1535.7c-361.8,302.4-669.9,558.9-683.3,572.3c-21.1,19.1-11.5,44,45.9,128.2c130.2,195.2,235.4,447.9,266.1,639.3c23,135.9,26.8,143.6,82.3,134C6766.7-67.6,7138-102,7564.8-138.4z M4044.9-1269.6c208.6-139.7,459.4-241.2,681.4-271.8c90-13.4,91.9-15.3,88-80.4c-9.6-135.9-139.7-1561.9-149.3-1638.4l-11.5-78.5l-118.7,15.3c-331.1,44-736.9,168.5-1058.5,325.4c-178,86.1-528.3,306.2-635.5,398.1l-44,38.3l566.6,681.4c312,373.2,570.4,679.5,574.2,679.5S3989.4-1231.3,4044.9-1269.6z M6636.5-1884l568.5-683.3l-45.9-34.4c-143.6-114.8-468.9-317.7-637.4-398.1c-327.3-158.9-754.2-287.1-1062.3-319.6l-112.9-11.5l-9.6,65.1c-7.6,49.8-126.3,1341.8-151.2,1653.8c-3.8,53.6,0,57.4,97.6,70.8c216.3,32.5,557,176.1,698.6,294.8c30.6,24.9,61.3,45.9,70.8,45.9S6324.5-1508.9,6636.5-1884z" fill="#ffffff"/><path d="M4626.8,1103.8c-135.9-55.5-264.1-109.1-283.3-118.7c-30.6-13.4-7.7-44,160.8-210.5C4613.4,667.4,4711,583.2,4720.5,587c11.5,5.7,53.6,19.1,93.8,32.5l70.8,23v285.2c0,155-1.9,283.3-3.8,281.4C4877.5,1209.1,4764.6,1161.3,4626.8,1103.8z" fill="#ffffff"/><path d="M5114.8,927.7V646.4l97.6-36.4l99.5-34.5l187.6,187.6c105.3,103.4,189.5,193.3,189.5,199.1s-128.2,63.2-287.1,128.2l-287.1,116.7V927.7z" fill="#ffffff"/><path d="M4132.9,776.5c-5.7-19.1-57.4-149.3-114.8-287.1l-107.2-254.6h281.4h281.4l36.4,97.6l34.5,99.5l-187.6,187.6c-103.4,105.3-195.2,189.5-201,189.5C4148.2,809.1,4138.7,793.8,4132.9,776.5z" fill="#ffffff"/><path d="M5643.1,619.6L5455.5,432l34.4-99.5l36.4-97.6h281.4h281.4L5970.4,522c-63.2,158.9-122.5,287.1-128.2,287.1S5746.5,724.8,5643.1,619.6z" fill="#ffffff"/><path d="M4831.6,443.5c-239.3-118.7-260.3-478.5-36.4-625.9c65.1-44,99.5-51.7,204.8-51.7c109.1,0,139.7,7.7,206.7,55.5c223.9,155,201,505.3-38.3,622.1C5059.3,495.2,4936.8,495.2,4831.6,443.5z" fill="#ffffff"/><path d="M4018.1-247.5c57.4-139.7,109.1-269.9,114.8-287.1c5.7-19.1,15.3-34.5,23-34.5c5.7,0,97.6,84.2,201,189.5L4544.5-192L4510-92.5l-36.4,97.6h-281.4h-281.4L4018.1-247.5z" fill="#ffffff"/><path d="M5499.6-65.7c-13.4-40.2-26.8-82.3-32.5-93.8c-5.8-11.5,78.5-109.1,187.6-216.3c160.8-160.8,197.1-189.5,208.6-160.8c7.7,19.1,61.3,149.3,120.6,289L6089.1,5.2h-283.3h-283.3L5499.6-65.7z" fill="#ffffff"/><path d="M4492.8-530.8c-103.4-103.4-185.7-193.3-179.9-197.1c3.8-3.8,93.8-42.1,199.1-86.1c105.3-42.1,231.6-95.7,283.3-116.8l90-38.3v281.4v281.4l-93.8,34.5c-51.7,17.2-95.7,32.5-101.5,32.5C4686.1-339.4,4598-425.5,4492.8-530.8z" fill="#ffffff"/><path d="M5197.1-373.8l-82.3-30.6v-283.3v-281.4l254.6,107.2c137.8,57.4,268,109.1,287.1,114.8c17.2,5.7,32.5,15.3,32.5,23c0,21-373.2,384.7-392.4,382.8C5285.2-343.2,5241.2-358.5,5197.1-373.8z" fill="#ffffff"/></g></g>
</svg>