<?xml version="1.0" encoding="utf-8"?>
<!-- Svg Vector Icons : http://www.sfont.cn -->
<!DOCTYPE svg PUBLIC "-//W3C//DTD SVG 1.1//EN" "http://www.w3.org/Graphics/SVG/1.1/DTD/svg11.dtd">
<svg version="1.1" xmlns="http://www.w3.org/2000/svg" xmlns:xlink="http://www.w3.org/1999/xlink" x="0px" y="0px" viewBox="0 0 1000 1000" enable-background="new 0 0 1000 1000" xml:space="preserve">
<metadata> Svg Vector Icons : http://www.sfont.cn </metadata>
<g><g><g><path d="M967.3,855.9l-86.8-86.8c37.2-81.8,22.5-181.6-44.7-248.8c-86.5-86.5-227.1-86.5-313.7,0c-86.5,86.5-86.5,227.1,0.1,313.6c67.1,67.1,167,81.9,248.8,44.7l86.8,86.8c30.3,30.3,79.3,30.3,109.6,0c14.5-14.5,22.7-34.2,22.7-54.7C990,890.2,981.8,870.4,967.3,855.9z M780.4,778.6c-56,56-147.1,56-203,0c-56-55.9-56-147,0-203c55.9-55.9,147-55.9,203,0C836.3,631.5,836.4,722.7,780.4,778.6z" fill="#ffffff"/><path d="M687.8,153.6l-38.8-34.8l-45.7-9l-1.1,21l44.8,43.7l21.9,25.8l-24.7,12.9l-20.1-5.9l-30.1-12.5l1-24.2l-39.5-16.3l-13.1,57l-39.8,9l4,31.8l51.7,10l8.9-50.9l42.8,6.3l19.9,11.6H662l21.9,43.7l57.9,58.7l-4.2,22.8l-46.7-6l-80.6,40.7l-56.4,67.7c37.7-21.5,80.4-33.1,125.1-33.1c67.7,0,131.3,26.3,179.2,74.1c58.9,59,83.7,143.2,69.6,223.5c34.7-66.9,54.7-142.6,54.7-223.3c0-100.1-30.4-193.3-82.3-270.6l-14.5,4.6l-77.5,7L786.2,274l-15.9-5l-61.7-55.6l-9-28.9L687.8,153.6z" fill="#ffffff"/><path d="M447.2,489.7l9.4,39.8l16.4-18.9l15.6-0.6c3.6-4.1,7.1-8.2,11-12.1c4.6-4.6,9.4-8.7,14.2-12.9L485,471.8L447.2,489.7z" fill="#ffffff"/><path d="M636.7,926.6l-17.4,11.6l-8.9,32.2c41.3-9.9,80.5-25.3,117-45c-16.1,3.2-32.5,4.9-48.8,4.9C664.4,930.2,650.4,928.9,636.7,926.6z" fill="#ffffff"/><path d="M499.7,856.3c-47.8-47.7-74.2-111.3-74.2-179.1c0-39.3,9.1-77,25.8-111.2l-51.9-11.6l-26.8-56.2v33.4h-11.8L291,437v-77.6l-51.1-83l-81.1,14.4h-54.6l-27.5-18l35.1-27.8l-35,8.1C34.6,325.1,10,408.6,10,498.1c0,268.5,217.7,486.3,486.2,486.3c20.7,0,40.9-1.8,61-4.2l-5.1-58.9c0,0,2.3-9.2,5.5-21.6C536.7,888.2,517.1,873.7,499.7,856.3z" fill="#ffffff"/><path d="M190.7,168.6l86.4-12l39.8-21.8l44.8,12.9l71.6-4l24.5-38.5l35.8,5.9l86.8-8.2l23.9-26.3L638.1,54l47.7,7.1l17.4-2.6c-62.9-29.6-132.9-46.7-207-46.7c-150.9,0-285.9,68.8-375.1,176.8h0.2L190.7,168.6z M516.8,60.1l49.7-27.3l31.9,18.4l-46.2,35.2l-44.1,4.4l-19.9-12.9L516.8,60.1z M369.7,64.1l21.9,9.1l28.7-9.1l15.6,27.1l-66.2,17.4L337.8,90C337.8,90,369,69.9,369.7,64.1z" fill="#ffffff"/></g></g><g></g><g></g><g></g><g></g><g></g><g></g><g></g><g></g><g></g><g></g><g></g><g></g><g></g><g></g><g></g></g>
</svg>