<?xml version="1.0" encoding="utf-8"?>
<!-- Svg Vector Icons : http://www.sfont.cn -->
<!DOCTYPE svg PUBLIC "-//W3C//DTD SVG 1.1//EN" "http://www.w3.org/Graphics/SVG/1.1/DTD/svg11.dtd">
<svg version="1.1" xmlns="http://www.w3.org/2000/svg" xmlns:xlink="http://www.w3.org/1999/xlink" x="0px" y="0px" viewBox="0 0 1000 1000" enable-background="new 0 0 1000 1000" xml:space="preserve">
<metadata> Svg Vector Icons : http://www.sfont.cn </metadata>
<g><g transform="translate(0.000000,511.000000) scale(0.100000,-0.100000)"><path d="M317.6,4954.1c-85.8-43.9-117.8-75.8-161.7-161.7L100,4686.7V120c0-3439,6-4580.7,24-4632.5c35.9-107.8,95.8-173.7,203.6-227.5l99.8-49.9H5002h4574.7l105.8,55.9c85.8,43.9,117.8,75.8,161.7,161.7l55.9,105.8V108v4574.7l-49.9,99.8c-53.9,107.8-119.7,167.7-227.5,203.6c-51.9,18-1193.6,24-4632.5,24H423.3L317.6,4954.1z M9375.1,4708.6c75.8-27.9,183.6-133.7,217.5-211.6c24-53.9,27.9-754.5,27.9-4385c0-2997.9-6-4337.2-21.9-4377.1c-27.9-75.8-133.7-183.6-211.6-217.5c-95.8-41.9-8678.3-41.9-8774.1,0c-77.9,33.9-183.6,141.7-211.6,217.5c-29.9,79.8-29.9,8670.3,0,8750.2c27.9,73.8,131.7,183.6,207.6,217.6c49.9,22,810.4,25.9,4385.1,27.9C7995.9,4730.6,9335.2,4724.6,9375.1,4708.6z" fill="#ffffff"/><path d="M4706.6,3353.4c-413.2-43.9-786.4-145.7-1123.7-309.4c-289.4-139.7-524.9-309.4-752.5-544.9c-562.8-580.8-830.3-1277.4-868.2-2259.4c-31.9-880.2,171.7-1676.6,572.8-2241.4c155.7-215.6,499-550.9,710.6-690.6c552.9-365.3,1291.4-546.9,2093.7-512.9c1233.5,49.9,2055.8,514.9,2510.9,1419.1c63.9,129.7,193.6,469,193.6,511c0,10-395.2,18-976,18h-976l-53.9-71.8c-79.8-105.8-271.4-237.5-413.2-287.4c-177.6-61.9-499-75.8-696.6-31.9c-303.4,67.8-497,197.6-656.7,443.1C4151.7-1021.7,4083.9-854,4028-594.6c-59.9,283.4-65.9,978-8,1283.4c115.8,616.7,403.2,984,848.3,1079.8c393.2,83.8,810.3-6,1063.8-229.5l91.8-81.8l1010,4l1007.9,6l-57.9,173.6c-121.7,363.3-313.4,672.6-576.8,936.1c-403.2,399.2-916.1,640.7-1588.8,746.5C5576.8,3361.4,4946.1,3377.3,4706.6,3353.4z" fill="#ffffff"/></g></g>
</svg>