<?xml version="1.0" encoding="utf-8"?>
<!-- Svg Vector Icons : http://www.sfont.cn -->
<!DOCTYPE svg PUBLIC "-//W3C//DTD SVG 1.1//EN" "http://www.w3.org/Graphics/SVG/1.1/DTD/svg11.dtd">
<svg version="1.1" xmlns="http://www.w3.org/2000/svg" xmlns:xlink="http://www.w3.org/1999/xlink" x="0px" y="0px" width="80" height="80" viewBox="0 0 1000 1000" enable-background="new 0 0 1000 1000" xml:space="preserve">
<metadata> Svg Vector Icons : http://www.sfont.cn </metadata>
<g><g transform="translate(0.000000,511.000000) scale(0.100000,-0.100000)"><path d="M4825.4,4806.6c-179.5-68.3-372.7-238-446.8-390.2c-52.7-111.2-76.1-259.5-58.5-376.6c11.7-78,9.8-97.5-21.5-119c-70.2-48.8-27.3-314.1,68.3-427.3c25.4-29.3,52.7-85.8,60.5-122.9c62.4-290.7,284.8-478,567.7-478c115.1,0,156.1,9.8,253.6,58.5c136.6,70.2,247.8,216.6,284.8,374.6c15.6,64.4,37.1,103.4,56.6,109.2c50.7,13.7,91.7,89.8,128.8,238c29.3,117.1,29.3,138.5,3.9,183.4c-19.5,35.1-25.3,74.1-13.6,128.8c21.5,126.8,15.6,345.3-13.7,429.2c-15.6,42.9-50.7,95.6-78,117.1c-29.3,21.5-91.7,76.1-142.4,119c-146.3,128.8-243.9,169.7-423.4,177.5C4952.2,4832,4870.3,4824.2,4825.4,4806.6z" fill="#ffffff"/><path d="M4349.3,2818.5c-85.8-42.9-234.1-113.2-331.7-154.1c-95.6-41-199-99.5-230.2-128.8c-126.8-119-169.7-288.8-169.7-671.2v-249.7h1387.2H6394l-9.8,288.8c-17.5,507.3-85.8,636-405.8,762.9c-91.7,35.1-238,103.4-327.8,150.2c-160,83.9-161.9,83.9-177.5,41c-9.8-23.4-76.1-232.2-148.3-462.4c-72.2-230.2-132.7-421.4-136.6-425.3c-2-2-29.3,68.3-62.4,156.1l-56.6,161.9l54.6,105.4c101.4,191.2,54.6,294.6-134.6,294.6c-163.9,0-208.8-121-113.2-302.4l50.7-93.6l-52.7-154.1c-27.3-85.8-58.5-148.3-66.3-138.5c-9.8,7.8-74.1,204.9-146.3,435.1c-72.2,230.2-136.6,429.2-144.4,440.9C4509.3,2890.7,4454.7,2873.1,4349.3,2818.5z" fill="#ffffff"/><path d="M3200.2,2061.5c-97.6-76.1-46.8-212.7,80-212.7c70.2,0,128.8,56.6,128.8,126.8c0,62.4-56.6,126.8-113.2,126.8C3272.4,2102.5,3229.4,2084.9,3200.2,2061.5z" fill="#ffffff"/><path d="M6651.5,2053.7c-76.1-74.1-56.6-161.9,46.8-202.9c150.2-62.4,243.9,148.3,99.5,222.4C6721.8,2112.2,6706.2,2110.3,6651.5,2053.7z" fill="#ffffff"/><path d="M2694.9,1716.2c-74.1-81.9-19.5-218.5,87.8-218.5c60.5,0,132.7,76.1,132.7,140.5C2915.3,1739.6,2763.1,1792.3,2694.9,1716.2z" fill="#ffffff"/><path d="M7131.5,1700.6c-52.7-66.3-50.7-91.7,3.9-156.1c52.7-60.5,132.7-68.3,189.3-17.6c52.7,46.8,48.8,119-9.8,175.6C7252.5,1766.9,7182.2,1765,7131.5,1700.6z" fill="#ffffff"/><path d="M2330,1327.9c-60.5-23.4-97.6-72.2-97.6-132.7c0-119,128.8-169.7,210.7-81.9c42.9,44.9,54.6,121,27.3,161.9c-13.7,19.5-91.7,68.3-105.4,64.4C2361.2,1339.6,2345.6,1333.8,2330,1327.9z" fill="#ffffff"/><path d="M7558.8,1283c-54.6-54.6-48.8-111.2,19.5-177.5c64.4-66.3,121-64.4,181.4,5.9c46.8,54.6,41,107.3-15.6,161.9C7687.5,1331.8,7611.4,1335.7,7558.8,1283z" fill="#ffffff"/><path d="M1920.3,791.4c-78-85.8-27.3-210.7,87.8-210.7c76.1,0,126.8,54.6,126.8,140.5C2134.9,830.4,1998.3,875.3,1920.3,791.4z" fill="#ffffff"/><path d="M7939.2,810.9c-50.7-29.3-68.3-54.6-68.3-105.4c0-58.5,72.2-144.4,124.9-144.4c124.9,0,177.5,154.1,78,232.2C8015.3,840.2,7993.8,842.1,7939.2,810.9z" fill="#ffffff"/><path d="M4759,639.2C4064.5,529.9,3526,46.1,3338.7-638.7c-35.1-128.8-42.9-204.9-41-429.2c2-236.1,9.8-296.6,54.6-444.9c64.4-218.5,181.5-448.7,294.6-589.2l89.7-109.3L3686-2299c-70.2-119-156.1-212.6-257.5-282.9c-91.7-64.4-105.4-103.4-46.8-134.6c103.4-54.6,374.6-9.8,599,99.5l156.1,76.1l150.2-68.3c226.3-105.4,450.7-152.2,716-152.2c493.6,1.9,901.4,177.5,1242.8,538.5c796,846.8,530.7,2216.4-526.8,2717.8C5445.8,623.6,5047.8,684.1,4759,639.2z M4398.1-880.6c58.5-41,97.6-148.3,83.9-222.4c-17.6-89.7-113.2-169.7-202.9-169.7c-148.3,0-241.9,87.8-238,226.3C4046.9-865,4247.9-769.5,4398.1-880.6z M5092.7-855.3c80-39,124.9-115.1,124.9-214.6c0-54.6-15.6-85.8-66.3-136.6c-56.6-56.6-80-66.3-154.1-66.3c-109.3,0-179.5,52.7-210.7,156.1c-29.3,99.5,21.5,208.7,119,257.5C4989.3-816.3,5008.8-816.3,5092.7-855.3z M5873.1-874.8c52.7-35.1,85.8-109.3,85.8-195.1c0-54.6-15.6-85.8-66.3-136.6c-56.6-56.6-80-66.3-154.1-66.3c-253.6,0-310.2,331.7-72.2,427.3C5722.8-824.1,5812.6-835.8,5873.1-874.8z" fill="#ffffff"/><path d="M1711.5,288c-130.7-52.7-99.5-253.6,39-253.6c122.9,0,175.6,156.1,80,232.2C1772,311.4,1772,311.4,1711.5,288z" fill="#ffffff"/><path d="M8163.6,245.1c-50.7-54.6-50.7-113.2,1.9-179.5c74.2-93.7,212.7-44.9,212.7,78C8378.2,270.5,8247.5,334.8,8163.6,245.1z" fill="#ffffff"/><path d="M1520.3-326.5c-89.7-87.8-44.9-224.4,74.1-224.4c117.1,0,173.6,152.1,87.8,234.1C1625.7-264.1,1576.9-268,1520.3-326.5z" fill="#ffffff"/><path d="M8319.7-336.3c-52.7-52.7-48.8-128.8,9.8-185.4c56.6-58.5,113.1-62.5,165.8-9.8c80,80,23.4,234.1-87.8,234.1C8380.1-297.3,8341.1-314.8,8319.7-336.3z" fill="#ffffff"/><path d="M1266.7-898.2c-265.3-128.8-440.9-370.7-446.8-612.6c0-68.3,3.9-146.3,11.7-173.6c11.7-42.9,7.8-54.6-23.4-62.4c-33.2-7.8-39-27.3-39-109.2c0-103.4,60.5-294.6,107.3-333.6c13.7-11.7,44.9-82,66.3-154.1c72.2-238,226.3-386.3,444.8-431.2c267.3-56.6,528.7,91.7,628.2,359c21.5,60.5,41,122.9,41,136.6c0,15.6,17.6,31.2,39,37.1c44.9,11.7,103.4,130.7,136.6,275.1c15.6,72.2,15.6,105.4-5.8,144.4c-19.5,41-21.5,87.8-5.9,214.6c31.2,263.4-23.4,444.8-154.1,509.2c-29.3,13.7-78,54.6-107.3,87.8c-93.6,105.3-220.5,156.1-409.7,163.9C1399.4-841.6,1372.1-847.5,1266.7-898.2z" fill="#ffffff"/><path d="M8311.9-872.8c-202.9-72.2-427.3-300.5-479.9-485.8c-13.7-54.6-21.5-146.3-15.6-234.1c7.8-122.9,3.9-146.3-27.3-165.8c-23.4-15.6-35.1-44.9-35.1-95.6c0-101.4,74.1-314.1,119-341.4c21.5-13.6,37.1-39,37.1-56.6c0-54.6,74.1-238,124.9-306.3c74.1-99.5,191.2-173.6,325.8-208.7c105.4-27.3,142.4-29.3,236.1-9.8c206.8,44.9,366.8,199,427.3,411.7c13.7,50.7,46.8,107.3,80,132.6c35.1,29.3,66.3,87.8,93.7,173.7c44.9,148.3,48.8,226.3,11.7,257.5c-19.5,15.6-21.5,42.9-9.8,105.3c48.8,251.7,2,493.6-109.2,571.7c-27.3,21.5-99.5,78-158,128.8c-60.5,50.7-148.3,105.4-199,121C8624-835.8,8415.3-835.8,8311.9-872.8z" fill="#ffffff"/><path d="M857-2853.1c-74.1-41-204.9-103.4-292.7-136.6c-368.7-144.4-421.4-240-450.7-794.1L100-4043.2h1400.8h1400.8l-9.8,308.2c-15.6,497.5-68.3,583.4-454.6,745.3c-126.8,54.6-279,124.9-335.6,158c-58.5,33.2-109.2,58.5-113.2,54.6c-2-3.9-70.2-212.7-148.3-462.4c-78-247.8-148.3-446.8-158-437c-7.8,7.8-37.1,78-62.4,154.1l-46.8,138.5l56.6,111.2c31.2,62.4,56.6,132.6,56.6,158c0,122.9-224.4,175.6-323.9,76.1c-58.5-58.5-52.7-124.9,23.4-257.6l46.8-81.9l-52.7-158c-31.2-85.9-58.5-156.1-64.4-156.1s-42.9,107.3-83.9,240c-167.8,532.6-214.6,677-226.3,675.1C999.4-2777,933.1-2812.2,857-2853.1z" fill="#ffffff"/><path d="M7880.7-2835.6c-52.7-31.2-185.4-93.7-292.7-138.6c-417.5-175.6-458.5-241.9-474.1-751.1l-7.8-318h1396.9H9900v64.4c-3.9,216.6-41,583.4-68.3,659.5c-48.8,140.5-138.5,214.6-386.3,320c-121,52.7-273.1,124.9-341.4,161.9c-68.3,37.1-124.9,64.4-128.8,60.5c-2-3.9-64.4-201-138.5-437c-72.2-236.1-140.5-442.9-148.3-458.5c-13.7-25.4-15.6-25.4-25.4,0c-5.9,15.6-31.2,89.7-58.5,163.9l-46.8,134.6l48.8,74.2c115.1,175.6,68.3,310.2-107.3,310.2c-181.4,0-230.2-109.2-128.8-298.5l48.8-93.6l-52.7-158.1c-27.3-85.8-58.5-148.3-66.3-138.5c-7.8,7.8-29.3,60.5-44.9,113.2c-177.6,569.7-251.7,790.2-263.4,788.2C7984.1-2779,7935.3-2804.3,7880.7-2835.6z" fill="#ffffff"/><path d="M3188.5-3922.3c-87.8-70.2-29.3-224.4,85.8-222.4c122.9,0,173.6,142.4,78,216.6C3288-3877.4,3245-3877.4,3188.5-3922.3z" fill="#ffffff"/><path d="M6700.3-3900.8c-103.4-37-134.6-173.6-54.6-228.3c58.5-41,97.5-39,160,9.8C6913-4033.5,6827.1-3856,6700.3-3900.8z" fill="#ffffff"/><path d="M3760.1-4160.3c-105.4-42.9-101.4-177.5,5.9-230.2c62.4-29.3,70.2-29.3,121,9.8c64.4,48.8,80,140.5,29.3,185.4C3867.4-4152.5,3810.8-4140.8,3760.1-4160.3z" fill="#ffffff"/><path d="M6154-4154.5c-99.5-37-128.8-150.2-58.5-220.4c44.9-44.9,76.1-48.8,146.3-15.6c54.6,25.4,78,87.8,60.5,158c-7.8,35.1-91.7,99.5-115.1,89.8C6185.2-4142.7,6169.6-4148.6,6154-4154.5z" fill="#ffffff"/><path d="M4345.4-4316.4c-44.9-17.6-83.9-76.1-83.9-122.9c0-97.6,156.1-152.2,234.1-81.9C4599.1-4427.6,4478.1-4263.7,4345.4-4316.4z" fill="#ffffff"/><path d="M5504.3-4351.5c-58.5-64.4-39-171.7,37.1-199c113.1-42.9,228.2,68.3,179.5,171.7C5687.8-4310.6,5557-4293,5504.3-4351.5z" fill="#ffffff"/><path d="M4905.4-4394.4c-83.9-83.9-27.3-214.6,89.7-214.6c74.1,0,119,33.2,134.6,101.4c9.7,41,2,64.4-37.1,101.5C5034.1-4345.7,4958.1-4341.8,4905.4-4394.4z" fill="#ffffff"/></g></g>
</svg>