<?xml version="1.0" encoding="utf-8"?>
<!-- Svg Vector Icons : http://www.sfont.cn -->
<!DOCTYPE svg PUBLIC "-//W3C//DTD SVG 1.1//EN" "http://www.w3.org/Graphics/SVG/1.1/DTD/svg11.dtd">
<svg version="1.1" xmlns="http://www.w3.org/2000/svg" xmlns:xlink="http://www.w3.org/1999/xlink" x="0px" y="0px" width="80" height="80" viewBox="0 0 1000 1000" enable-background="new 0 0 1000 1000" xml:space="preserve">
<metadata> Svg Vector Icons : http://www.sfont.cn </metadata>
<g><path d="M604.6,543.8c17.6,0,32-14.3,32-32s-14.3-32-32-32h-49.5l57.2-53.9c12.9-12.1,13.5-32.3,1.4-45.2c-12.1-12.9-32.3-13.5-45.2-1.4l-67,63.1l-67-63.1c-12.8-12.1-33.1-11.5-45.2,1.4c-12.1,12.8-11.5,33.1,1.3,45.2l57.2,53.9h-52.4c-17.6,0-32,14.3-32,32c0,17.6,14.3,32,32,32h74.6v47.7h-74.6c-17.6,0-32,14.3-32,32c0,17.6,14.3,32,32,32h74.6v72.6c0,17.7,14.3,32,32,32c17.6,0,32-14.3,32-32v-72.6h70.6c17.6,0,32-14.3,32-32c0-17.6-14.3-32-32-32H534v-47.7H604.6z" fill="#ffffff"/><path d="M959.7,565c-16.2-80.3-96.2-230.3-251.1-331.2c30.1-40.7,42.4-82.3,33.4-117.7C717.9,22.6,605.2,10,498,10l0,0l-0.1,0C390.8,10,278,22.6,254,116.1c-9.2,35.9,3.6,78.1,34.7,119.4C135.6,336.4,56.5,485.2,40.3,565C18.8,671.3,38.8,765.9,98,838.3c76.7,93.7,219.4,148.5,393,151.4c1,0.1,1.9,0.3,2.9,0.3c2.1,0,4-0.1,6.1-0.1c2,0,4,0.1,6.1,0.1c1,0,1.9-0.2,2.9-0.3c173.6-3,316.4-57.7,393-151.4C961.2,765.9,981.2,671.3,959.7,565 M852.5,797.8C786.7,878.3,658.4,924.8,500,926c-158.4-1.2-286.7-47.7-352.5-128.2c-47.4-57.9-62.4-132-44.5-220.2c14.3-70.6,93.9-215.8,246.7-304.9c3.2-1.9,5.9-4.3,8.1-7c0.3-0.3,0.7-0.4,1-0.7c12.6-12.4,12.7-32.6,0.4-45.2c-31.8-32.2-48.7-66.7-43.3-87.9c7.3-28.7,34.7-58,182-58h0.1h0c147.3,0,174.7,29.3,182,58c5.4,21.2-11.6,55.7-43.3,87.9c-12.4,12.6-12.2,32.8,0.4,45.2c3.7,3.7,8.2,5.9,12.8,7.3c0.2,0.1,0.3,0.2,0.4,0.3C803.2,361.9,882.7,507.1,897,577.7C914.8,665.9,899.9,739.9,852.5,797.8" fill="#ffffff"/></g>
</svg>