<?xml version="1.0" encoding="utf-8"?>
<!-- Svg Vector Icons : http://www.sfont.cn -->
<!DOCTYPE svg PUBLIC "-//W3C//DTD SVG 1.1//EN" "http://www.w3.org/Graphics/SVG/1.1/DTD/svg11.dtd">
<svg version="1.1" xmlns="http://www.w3.org/2000/svg" xmlns:xlink="http://www.w3.org/1999/xlink" x="0px" y="0px" width="80" height="80" viewBox="0 0 1000 1000" enable-background="new 0 0 1000 1000" xml:space="preserve">
<metadata> Svg Vector Icons : http://www.sfont.cn </metadata>
<g><path d="M617.8,369.7c-31,24.8-68.2,49.6-117.8,49.6c-24.8,0-43.4-6.2-68.2-12.4c-18.6-12.4-37.2-24.8-55.8-37.2c-6.2-12.4-18.6-12.4-31,0c-6.2,6.2-6.2,24.8,0,31c18.6,18.6,43.4,31,74.4,43.4c24.8,12.4,49.6,18.6,80.6,18.6c62,0,111.6-24.8,155.1-62c6.2-6.2,6.2-24.8,0-31C642.7,357.3,630.3,357.3,617.8,369.7L617.8,369.7z M673.7,859.7L673.7,859.7H326.3c-12.4,0-24.8,12.4-24.8,24.8c0,12.4,12.4,24.8,24.8,24.8h347.3c12.4,0,24.8-12.4,24.8-24.8C698.5,872.2,686.1,859.7,673.7,859.7L673.7,859.7z M872.2,388.4L872.2,388.4c0-105.4-43.4-198.5-111.6-266.7C698.5,53.4,605.4,10,500,10c-105.4,0-198.5,43.4-266.7,111.6S127.8,282.9,127.8,388.4c0,68.2,18.6,130.3,49.6,186.1l0,0c24.8,49.6,68.2,93,111.6,124v105.4c0,18.6,18.6,37.2,37.2,37.2h347.3c18.6,0,37.2-18.6,37.2-37.2V698.5c49.6-31,86.8-74.4,111.6-124l0,0C853.5,518.6,872.2,450.4,872.2,388.4L872.2,388.4z M760.5,531L760.5,531L760.5,531L760.5,531c-24.8,43.4-62,80.6-105.4,111.6c-12.4,6.2-18.6,18.6-18.6,31l0,0v86.8H363.5v-86.8c0-12.4-6.2-31-18.6-31c-43.4-24.8-80.6-62-105.4-105.4l0,0c-24.8-49.6-37.2-99.2-37.2-148.9c0-80.6,31-155.1,86.8-210.9S419.4,90.6,500,90.6s155.1,31,210.9,86.8c55.8,55.8,86.8,130.3,86.8,210.9C797.7,438,785.3,487.6,760.5,531L760.5,531z M599.2,940.4L599.2,940.4H400.8c-12.4,0-24.8,12.4-24.8,24.8c0,12.4,12.4,24.8,24.8,24.8h204.7c12.4,0,24.8-12.4,24.8-24.8C624.1,946.6,611.6,940.4,599.2,940.4L599.2,940.4z" fill="#ffffff"/></g>
</svg>