<?xml version="1.0" encoding="utf-8"?>
<!-- Svg Vector Icons : http://www.sfont.cn -->
<!DOCTYPE svg PUBLIC "-//W3C//DTD SVG 1.1//EN" "http://www.w3.org/Graphics/SVG/1.1/DTD/svg11.dtd">
<svg version="1.1" xmlns="http://www.w3.org/2000/svg" xmlns:xlink="http://www.w3.org/1999/xlink" x="0px" y="0px" width="80" height="80" viewBox="0 0 1000 1000" enable-background="new 0 0 1000 1000" xml:space="preserve">
<metadata> Svg Vector Icons : http://www.sfont.cn </metadata>
<g><g transform="translate(0.000000,512.000000) scale(0.100000,-0.100000)"><path d="M4570.6,4999.9C3289.8,4867.8,2112.4,4128.8,1429,3028C538.8,1594.1,600-284,1582.1-1606.8c675.8-909.4,1746-1510.5,2996.1-1682.8l170.4-23l-13.4-606.9l-11.5-605l57.4-90c111-174.2,304.4-210.6,589.6-111c304.4,105.3,589.6,296.7,865.3,574.3c289.1,292.9,553.3,727.5,681.5,1119.9l51.7,158.9l168.5,70.8c208.7,88.1,538,275.7,748.6,425c227.8,162.7,576.2,516.9,719.8,733.2c268,402,438.4,867.3,528.4,1447.3c76.6,499.7,86.2,1219.5,21.1,1636.8c-233.6,1499-1231,2745.3-2630.4,3290.9C5910.7,4971.2,5221.5,5065,4570.6,4999.9z M5370.8,4387.3c451.8-47.9,828.9-158.9,1238.6-363.7c706.4-350.3,1261.6-909.4,1608.1-1615.8c314-639.4,417.3-1252,354.2-2096.3c-67-905.5-306.3-1514.3-775.4-1981.4c-262.3-262.3-574.3-459.5-995.5-631.8c-315.9-128.3-314-128.3-400.1-426.9c-65.1-225.9-170.4-453.7-298.6-647.1c-134-201-453.7-515-605-595.4c-65.1-34.5-122.5-63.2-128.3-63.2c-5.8,0-13.4,218.3-17.2,482.4c-5.7,482.4-5.7,484.3-57.4,589.6c-80.4,162.7-132.1,187.6-457.5,222.1c-704.5,72.8-1334.3,277.6-1851.2,597.3C2087.5-1585.8,1540-676.4,1432.8,434c-99.6,1022.3,210.6,2002.5,876.8,2760.6C3060.1,4052.2,4237.5,4511.7,5370.8,4387.3z" fill="#ffffff"/><path d="M4857.7,3782.3c-26.8-3.8-74.7-11.5-109.1-17.2l-61.3-9.6l-5.7-654.7c-7.7-626-9.6-660.5-51.7-773.4c-40.2-109.1-189.5-312-231.6-312c-7.7,0-19.1,24.9-24.9,55.5c-17.2,80.4-118.7,189.5-201,212.5c-91.9,24.9-1311.4,24.9-1399.5,0c-105.3-28.7-189.5-124.4-212.5-237.4c-13.4-67-19.1-658.6-15.3-1820.6l5.7-1723l44-70.8c24.9-40.2,76.6-86.1,126.3-109.1c76.6-38.3,113-40.2,748.6-40.2s672,1.9,748.5,40.2c132.1,63.2,164.7,134,176.1,392.5c7.7,193.4,13.4,218.3,40.2,204.9c17.2-7.7,572.4-17.2,1232.9-21.1c1045.3-3.8,1219.5-1.9,1321,24.9c229.7,59.4,411.6,210.6,534.1,442.2c135.9,258.4,495.8,1299.9,534.1,1541.1c72.8,474.8-256.5,941.9-727.5,1031.9c-57.4,9.6-325.4,19.1-597.3,19.1h-495.8v522.6c0,568.6-11.5,662.4-109.1,842.3c-111,202.9-381,386.7-652.8,444.2C5357.4,3791.9,4980.2,3801.5,4857.7,3782.3z M5443.5,3123.7c53.6-13.4,103.4-44,132.1-78.5l47.9-57.4v-821.3v-821.3h790.6c781.1,0,790.7,0,874.9-42.1c201-103.4,208.7-218.2,51.7-685.4C7135.9,3.2,7001.9-331.8,6931.1-416l-67-76.6l-1167.8,3.8L4528.5-483l-65.1,70.8l-65.1,72.7v848.1v846.2l101.5,36.4c388.6,135.9,672,486.3,767.7,951.5c15.3,78.5,34.5,291,42.1,472.9c7.7,180,21.1,329.3,30.6,329.3C5349.8,3144.8,5395.7,3135.2,5443.5,3123.7z M3766.5,292.3v-1397.5h-296.7H3173V292.3v1397.5h296.7h296.7V292.3z" fill="#ffffff"/></g></g>
</svg>