<?xml version="1.0" encoding="utf-8"?>
<!-- Svg Vector Icons : http://www.sfont.cn -->
<!DOCTYPE svg PUBLIC "-//W3C//DTD SVG 1.1//EN" "http://www.w3.org/Graphics/SVG/1.1/DTD/svg11.dtd">
<svg version="1.1" xmlns="http://www.w3.org/2000/svg" xmlns:xlink="http://www.w3.org/1999/xlink" x="0px" y="0px" width="80" height="80" viewBox="0 0 1000 1000" enable-background="new 0 0 1000 1000" xml:space="preserve">
<metadata> Svg Vector Icons : http://www.sfont.cn </metadata>
<g><g transform="translate(0.000000,511.000000) scale(0.100000,-0.100000)"><path d="M4766.7,4976.7c-846-127.9-1545-473.1-2150.2-1059.1c-483.8-471-835.4-1031.4-1044.2-1664.4c-104.4-321.8-142.8-513.6-196.1-1022.9c-63.9-607.4-106.6-750.1-445.4-1461.9C692.1-730.3,647.4-864.6,658-1013.7c12.8-134.3,61.8-208.9,185.4-279.2c72.5-40.5,147.1-55.4,400.7-76.7c198.2-19.2,319.7-38.3,336.7-57.5c14.9-14.9,93.8-464.6,179-997.3c113-720.3,162-982.4,189.7-1022.9c21.3-29.8,76.7-72.5,123.6-95.9c78.9-40.5,121.5-42.6,843.9-38.4c739.5,2.1,760.8,2.1,773.6-38.4c8.5-23.4,6.4-189.7,0-368.7c-19.2-385.7,6.4-515.7,130-652.1c140.7-155.6,68.2-149.2,1958.5-149.2c1864.7,0,1834.8-2.1,1964.8,132.1c147,153.4,144.9,115.1,144.9,1391.6c0,1334-32,1165.7,272.8,1468.3C8760.3-1197,9135.4-466.1,9297.3,409.8c51.2,283.4,61.8,835.4,21.3,1140.1c-83.1,637.2-343.1,1285-730.9,1828.4c-144.9,202.5-524.2,601-726.7,767.2c-547.7,447.5-1206.2,733.1-1924.4,835.4C5653.2,5021.4,5037.4,5019.3,4766.7,4976.7z M5989.9,3836.5c6.4-27.7,23.5-142.8,38.4-257.8l27.7-208.9l191.8-63.9c104.4-36.2,245.1-93.8,311.1-130l121.5-66.1l193.9,151.3c106.6,85.2,200.3,153.4,208.8,153.4c10.7,0,134.3-117.2,277-260l262.1-262.1l-157.7-204.6l-157.7-202.5l83.1-166.2c46.9-91.6,102.3-232.3,127.9-313.3c49-159.8,38.4-153.4,274.9-179c63.9-6.4,153.4-17,198.2-23.4l78.9-12.8v-379.3v-379.3l-217.4-25.6c-121.5-12.8-234.4-29.8-255.7-34.1c-21.3-6.4-51.1-66.1-78.9-157.7c-25.6-83.1-83.1-221.6-130-311.1l-83.1-162L7464.6,137l159.8-202.4l-266.4-266.4c-249.3-251.5-268.5-266.4-309-236.6c-23.4,17-115.1,87.4-204.6,155.6l-162,125.7l-189.7-89.5c-104.4-51.1-245.1-106.6-313.3-127.9L6056-540.7l-27.7-213.1c-14.9-115.1-32-232.3-38.4-257.9c-8.5-49-12.8-49-381.5-49s-372.9,0-381.5,49c-6.4,25.6-23.4,142.8-38.3,257.9L5161-540.7l-123.6,36.2c-68.2,21.3-208.9,76.7-313.3,127.9l-189.7,89.5l-161.9-125.7c-89.5-68.2-181.1-138.5-204.6-155.6c-40.5-29.8-59.7-14.9-309,234.4L3592.5-67.6L3752.3,137L3910,341.6l-81,155.6c-44.8,87.4-102.3,228-127.9,313.3c-53.3,174.8-25.6,157.7-351.6,200.3l-213.1,27.7l-6.4,360.2c-2.1,198.2,2.1,368.7,12.8,379.3c8.5,8.5,125.7,29.8,257.9,46.9c132.1,17.1,242.9,32,245.1,36.2c4.3,4.3,32,85.2,63.9,179c32,93.8,89.5,232.3,130,306.9l72.4,136.4l-159.8,202.4l-159.8,204.6l262.1,262.1c142.8,144.9,268.5,262.1,277,262.1c10.7,0,102.3-68.2,208.8-151.3l191.8-151.3l174.8,85.2c98,46.9,234.4,102.3,304.7,123.6c70.3,21.3,134.2,42.6,142.8,49c6.4,6.4,25.5,112.9,38.3,236.5c12.8,123.6,27.7,236.5,32,251.5c6.4,19.2,102.3,25.6,381.4,25.6C5977.1,3883.4,5981.4,3883.4,5989.9,3836.5z" fill="#ffffff"/><path d="M5493.4,3224.9c-17-10.7-23.4-40.5-17-78.9c63.9-321.8,57.5-306.9,112.9-306.9c27.7,0,51.2,4.3,51.2,8.5c0,4.3,14.9,87.4,34.1,183.3c27.7,144.9,27.7,179,4.3,193.9C5642.6,3248.4,5531.7,3248.4,5493.4,3224.9z" fill="#ffffff"/><path d="M4515.2,2790.2c-38.4-38.4-68.2-76.7-68.2-83.1c0-10.7,219.5-174.7,289.8-215.2c12.8-8.5,40.5,4.3,59.7,23.4c32,36.2,27.7,49-74.6,191.8c-59.7,85.2-115.1,153.4-123.6,153.4C4589.8,2860.5,4553.6,2828.6,4515.2,2790.2z" fill="#ffffff"/><path d="M6452.4,2709.2c-102.3-144.9-115.1-196-57.5-217.4c23.4-8.5,260,138.5,319.7,198.2c21.3,21.3-104.4,170.5-140.7,170.5C6565.3,2860.5,6509.9,2792.3,6452.4,2709.2z" fill="#ffffff"/><path d="M5384.7,2660.2c-490.1-106.6-833.2-601-745.9-1082.6c29.8-159.8,98-298.3,247.2-505.1c63.9-85.2,125.7-196.1,138.5-245.1c12.8-46.9,29.8-110.8,36.2-140.6l14.9-53.3l498.7-6.4c349.5-4.3,507.2,2.1,526.4,19.2c17.1,12.8,29.9,53.3,29.9,87.4c0,89.5,51.2,196,168.4,355.9c215.2,289.8,279.2,498.7,238.7,762.9c-63.9,407-383.6,741.6-777.8,814.1C5604.2,2694.3,5536,2694.3,5384.7,2660.2z M5747,1645.8c12.8,0,53.3,14.9,89.5,34.1c61.8,32,66.1,32,49-4.3c-51.2-123.6-162-541.3-183.3-699l-25.6-183.3H5585h-91.6l-12.8,102.3c-32,249.3-106.6,554.1-198.2,788.5c-8.5,23.4,4.2,21.3,55.4-4.3c87.4-44.8,108.7-42.6,185.4,19.2l61.8,51.1l68.2-51.1C5691.6,1669.3,5734.2,1645.8,5747,1645.8z" fill="#ffffff"/><path d="M4076.2,1803.5c-17-46.9-14.9-142.8,4.3-174.7c14.9-19.2,55.4-19.2,202.5,8.5c170.5,32,185.4,38.4,185.4,85.2c0,53.3-2.1,55.4-221.6,93.8C4086.9,1844,4091.2,1844,4076.2,1803.5z" fill="#ffffff"/><path d="M6897.8,1814.2c-53.3-10.7-117.2-25.6-142.8-32c-34.1-6.4-49-25.6-49-61.8c0-40.5,12.8-53.3,70.3-63.9c36.2-6.4,115.1-19.2,174.7-29.8c57.5-10.7,112.9-14.9,121.5-10.7c10.7,6.4,17.1,57.5,17.1,117.2C7089.6,1850.4,7085.3,1852.5,6897.8,1814.2z" fill="#ffffff"/><path d="M4598.3,855.2c-83.1-57.5-151.3-112.9-151.3-123.6c0-34.1,153.4-155.6,172.6-136.4c59.7,59.7,204.6,294.1,196.1,317.5C4794.4,970.3,4743.3,957.5,4598.3,855.2z" fill="#ffffff"/><path d="M6377.8,929.8c-38.3-38.4-40.5-34.1,89.5-215.2c98-140.6,119.3-147.1,198.2-55.4c66.1,76.7,63.9,87.4-70.3,181.1C6411.9,970.3,6416.2,968.1,6377.8,929.8z" fill="#ffffff"/><path d="M5197.2,313.9l83.1-159.8h306.9h309l74.6,149.2c40.5,81,74.6,153.4,74.6,159.8c0,6.4-208.8,10.6-466.7,10.6h-464.6L5197.2,313.9z" fill="#ffffff"/><path d="M5312.2,71c-21.3-32,23.5-123.6,76.7-159.8c57.5-40.5,306.9-46.9,387.8-10.7c55.4,25.6,110.8,130,87.4,166.2C5847.2,96.5,5329.3,98.7,5312.2,71z" fill="#ffffff"/></g></g>
</svg>