<?xml version="1.0" encoding="utf-8"?>
<!-- Svg Vector Icons : http://www.sfont.cn -->
<!DOCTYPE svg PUBLIC "-//W3C//DTD SVG 1.1//EN" "http://www.w3.org/Graphics/SVG/1.1/DTD/svg11.dtd">
<svg version="1.1" xmlns="http://www.w3.org/2000/svg" xmlns:xlink="http://www.w3.org/1999/xlink" x="0px" y="0px" width="80" height="80" viewBox="0 0 1000 1000" enable-background="new 0 0 1000 1000" xml:space="preserve">
<metadata> Svg Vector Icons : http://www.sfont.cn </metadata>
<g><g transform="translate(0.000000,512.000000) scale(0.100000,-0.100000)"><path d="M4827.7,4703.2c-191.4-400-354.1-805.8-507.2-1267.1c-157-468.9-333-1129.3-310.1-1152.3c13.4-15.3,1965.7-13.4,1979.1,0c30.6,30.6-254.6,1022.1-426.8,1491.1c-201,541.7-518.7,1238.4-564.7,1238.4C4986.6,5013.3,4910,4873.6,4827.7,4703.2z" fill="#ffffff"/><path d="M4307.1,4963.5c-103.4-15.3-206.7-34.4-231.6-44c-74.7-28.7-484.3-346.5-712-551.3c-428.8-386.6-834.5-876.6-1127.4-1362.8c-101.5-168.4-317.7-581.9-357.9-683.3l-17.2-45.9h914.9h914.9l44,195.2c158.9,700.5,470.9,1619.3,758,2229.9c141.6,300.5,139.7,292.8,63.2,290.9C4521.5,4990.3,4408.6,4976.9,4307.1,4963.5z" fill="#ffffff"/><path d="M5382.8,4980.8c0-11.5,49.8-126.3,112.9-256.5c292.8-618.2,610.6-1546.6,769.4-2252.8l44-195.2h914.9h914.9l-17.2,45.9c-44,112.9-266,534-379,717.8c-415.4,673.8-1024,1324.5-1674.8,1789.6c-109.1,76.6-153.1,95.7-277.5,116.8C5555.1,4986.5,5382.8,5001.8,5382.8,4980.8z" fill="#ffffff"/><path d="M3047.7,4603.7c-99.5-44-237.3-109.1-306.3-145.5c-692.9-352.2-1376.2-968.5-1826-1646.1c-112.9-170.3-298.6-493.8-298.6-522.5c0-7.7,204.8-13.4,455.5-13.4h457.5l91.9,206.7c319.7,717.8,796.2,1389.6,1404.9,1981.1c126.3,122.5,223.9,223.9,216.3,222C3235.2,4686,3147.2,4649.6,3047.7,4603.7z" fill="#ffffff"/><path d="M7057.6,4377.8c168.4-172.3,382.8-405.8,476.6-522.5c331.1-415.4,666.1-960.9,853.7-1391.5l82.3-187.6h455.5c252.7,0,457.5,5.7,457.5,15.3c0,26.8-158.9,302.4-281.4,491.9c-530.2,809.6-1301.6,1458.5-2187.8,1837.5c-86.1,36.4-158.9,67-160.8,67C6751.4,4687.9,6887.3,4548.2,7057.6,4377.8z" fill="#ffffff"/><path d="M406.2,1814.9C218.7,1326.8,100,670.3,100,113.3c0-557,118.7-1213.5,306.2-1701.6l59.3-155H5000h4534.4l59.3,155C9781.3-1100.2,9900-443.7,9900,113.3c0,557-118.7,1213.5-306.3,1701.6l-59.3,155H5000H465.6L406.2,1814.9z M2383.5,1053.1c296.7-116.8,467-359.8,514.9-735c40.2-327.3-45.9-641.2-233.5-836.4c-178-185.7-386.6-258.4-698.6-245c-229.7,11.5-371.3,61.3-513,176.1c-214.4,176.1-310.1,403.9-310.1,748.4c0,327.3,65.1,520.6,233.5,700.6c181.8,193.3,335,248.8,666.1,241.2C2224.6,1097.1,2295.4,1087.6,2383.5,1053.1z M5095.7,170.7V-748h-172.3h-172.3v918.7v918.8h172.3h172.3V170.7z M5803.9,926.8V764.1h-172.3h-172.3v162.7v162.7h172.3h172.3V926.8z M4190.4,555.4c47.9-23,105.3-74.6,134-120.6l53.6-78.5l5.7-553.2l5.7-553.2l-168.4,5.7l-168.4,5.7l-9.6,468.9c-9.6,497.7-15.3,526.4-107.2,585.7c-57.4,38.3-193.3,28.7-266.1-19.1c-103.4-68.9-114.8-118.7-124.4-595.3l-9.6-440.2l-166.5-5.7l-168.4-5.7v668v668l153.1,1.9l153.1,1.9v-97.6v-99.5l53.6,49.8c70.8,65.1,155,120.6,224,145.5C3874.5,622.4,4096.6,605.2,4190.4,555.4z M7107.4,582.2c45.9-17.2,112.9-57.4,147.4-91.9c105.3-101.5,118.7-185.7,118.7-744.6V-748h-170.4h-170.3l-7.7,465.1c-5.7,386.6-11.5,472.8-38.3,522.5c-74.6,135.9-268,137.8-394.3,1.9c-61.3-65.1-80.4-214.4-80.4-639.3V-748h-172.3h-172.3v669.9v669.9l162.7-3.8l162.7-3.8v-95.7v-95.7l72.7,68.9c112.9,109.1,201,145.5,359.8,147.4C6979.1,611,7061.4,597.6,7107.4,582.2z M8439.6,582.2c248.8-74.6,388.6-281.4,421.1-625.9l11.5-130.2h-444.1h-442.1v-42.1c1.9-78.5,72.7-204.8,137.8-245c40.2-24.9,97.6-38.3,155-38.3c76.6,0,103.4,9.6,149.3,55.5c30.6,30.6,55.5,70.8,55.5,86.1c0,17.2,13.4,30.6,30.6,30.6c55.5,0,304.3-44,317.7-55.5c7.6-7.7-11.5-57.4-44-112.9c-107.2-189.5-308.2-283.3-570.4-268c-268,17.2-451.7,141.6-534,365.6c-112.9,300.5-51.7,658.4,145.5,849.8C7976.4,597.6,8217.5,647.3,8439.6,582.2z M5803.9-78.1V-748h-172.3h-172.3v656.5c0,361.8,5.7,664.2,13.4,669.9c5.7,7.7,84.2,13.4,172.3,13.4h158.9V-78.1z" fill="#ffffff"/><path d="M1880.1,785.1c-262.2-86.1-384.7-319.7-357.9-689.1c23-342.6,210.5-545.5,501.5-545.5c153.1,0,248.8,40.2,346.4,145.5c84.2,88,116.8,158.9,143.6,312c57.4,333-47.9,633.6-256.5,740.7C2171,792.8,1962.4,811.9,1880.1,785.1z" fill="#ffffff"/><path d="M8125.7,304.7c-65.1-40.2-107.2-107.2-130.2-204.8l-13.4-63.2H8252h269.9l-13.4,63.2C8479.8,249.2,8382.1,343,8253.9,343C8217.5,343,8160.1,325.8,8125.7,304.7z" fill="#ffffff"/><path d="M3947.3-2068.7c0-65.1,145.5-608.7,239.3-899.6c145.5-447.9,300.5-823,535.9-1292c122.5-241.2,233.5-457.5,248.8-476.6c28.7-38.3,28.7-38.3,57.4,0c15.3,19.1,126.3,235.4,246.9,476.6c227.8,457.5,409.6,893.9,547.4,1320.7c88,269.9,229.7,809.6,229.7,870.9c0,38.3-17.2,38.3-1052.7,38.3C3964.5-2030.4,3947.3-2030.4,3947.3-2068.7z" fill="#ffffff"/><path d="M616.8-2063c0-30.6,160.8-310.1,294.8-513c388.6-591.4,945.5-1131.2,1542.7-1494.9c172.3-103.4,633.6-335,717.8-359.8c21.1-5.7-90,120.6-248.8,281.4c-407.7,411.5-687.1,769.5-968.5,1234.6c-132.1,218.2-350.3,648.9-402,794.3l-24.9,70.8h-455.6C821.6-2049.6,616.8-2055.3,616.8-2063z" fill="#ffffff"/><path d="M1860.9-2072.6c0-44,275.6-574.2,403.9-777.1c411.5-664.2,1077.6-1368.6,1672.9-1774.3c99.5-67,254.6-105.3,570.4-135.9l130.2-13.4l-201,407.7c-212.5,426.8-413.4,914.9-547.4,1330.3c-84.2,256.5-248.8,890-248.8,951.3c0,32.5-42.1,34.5-890,34.5C2052.3-2049.6,1860.9-2055.3,1860.9-2072.6z" fill="#ffffff"/><path d="M6359-2084c0-76.6-178-731.2-285.2-1052.7c-145.5-434.5-317.7-846-537.8-1286.3l-176.1-350.3l132.1,13.4c315.8,30.6,470.9,68.9,570.4,135.9c486.2,331.1,1108.3,957,1487.2,1494.9c199.1,283.3,526.4,870.9,578.1,1037.4l13.4,42.1h-890C6399.2-2049.6,6359-2051.5,6359-2084z" fill="#ffffff"/><path d="M8387.9-2254.4c-176.1-417.3-514.9-970.4-853.7-1393.4c-93.8-114.8-298.6-342.6-457.5-501.5c-158.9-160.8-269.9-287.1-248.8-281.4s168.4,74.6,325.4,151.2c784.8,380.9,1466.2,983.8,1948.5,1722.7c122.5,189.5,281.4,465.1,281.4,493.8c0,7.7-204.8,13.4-453.6,13.4H8474L8387.9-2254.4z" fill="#ffffff"/></g></g>
</svg>